<svg width="16" height="16" viewBox="0 0 16 16" fill="none" xmlns="http://www.w3.org/2000/svg">
<g clip-path="url(#clip0_646_831)">
<path d="M12.6536 8.42724C12.6466 7.12061 13.2297 6.1344 14.4098 5.4081C13.7495 4.45038 12.752 3.92345 11.4348 3.8202C10.1879 3.72052 8.82512 4.55719 8.32635 4.55719C7.79949 4.55719 6.59123 3.85581 5.64288 3.85581C3.68295 3.88785 1.6001 5.44014 1.6001 8.59813C1.6001 9.53093 1.76869 10.4946 2.10588 11.4891C2.55547 12.7957 4.1782 16 5.87118 15.9466C6.75631 15.9252 7.38152 15.3093 8.53359 15.3093C9.65053 15.3093 10.2301 15.9466 11.2171 15.9466C12.9241 15.9217 14.3923 13.0093 14.8208 11.6992C12.5307 10.6061 12.6536 8.49488 12.6536 8.42724ZM10.6656 2.58122C11.6245 1.42768 11.5367 0.377392 11.5086 0C10.6621 0.0498442 9.68214 0.58389 9.12367 1.24255C8.509 1.94749 8.14722 2.81976 8.2245 3.8024C9.14123 3.87361 9.97719 3.39653 10.6656 2.58122Z" fill="black"/>
</g>
<defs>
<clipPath id="clip0_646_831">
<rect width="16" height="16" fill="white"/>
</clipPath>
</defs>
</svg>
