<svg width="24" height="24" viewBox="0 0 24 24" fill="none" xmlns="http://www.w3.org/2000/svg">
<path d="M9.001 11.949C9 6 11 2 15 0C15.5 6 21 8 21 15C21 17.3869 20.0518 19.6761 18.364 21.364C16.6761 23.0518 14.3869 24 12 24C9.61305 24 7.32387 23.0518 5.63604 21.364C3.94821 19.6761 3 17.3869 3 15C3 11.5 4 10 6 8C6 11 9.001 11.949 9.001 11.949Z" fill="#494949" fill-opacity="0.5"/>
<path d="M16.5 17.5C16.5 18.6935 16.0259 19.8381 15.182 20.682C14.3381 21.5259 13.1935 22 12 22C10.8065 22 9.66193 21.5259 8.81802 20.682C7.97411 19.8381 7.5 18.6935 7.5 17.5C7.5 15.823 8 14.958 9 14C9 16 10.5 16.5 10.5 16.5C10.5 13.65 11.5 11.958 13.5 11C13.75 13.875 16.5 14.813 16.5 17.5Z" fill="#A4A4A4"/>
</svg>
