<svg width="24" height="24" viewBox="0 0 24 24" fill="none" xmlns="http://www.w3.org/2000/svg">
<path d="M9.001 11.949C9 6 11 2 15 0C15.5 6 21 8 21 15C21 17.3869 20.0518 19.6761 18.364 21.364C16.6761 23.0518 14.3869 24 12 24C9.61305 24 7.32387 23.0518 5.63604 21.364C3.94821 19.6761 3 17.3869 3 15C3 11.5 4 10 6 8C6 11 9.001 11.949 9.001 11.949Z" fill="#FE7A71"/>
<path d="M12.0001 23.7497C7.97406 23.7497 4.56506 21.1337 3.36206 17.5117C4.45006 21.2587 7.90206 23.9997 12.0001 23.9997C16.0981 23.9997 19.5501 21.2587 20.6381 17.5117C19.4351 21.1337 16.0261 23.7497 12.0001 23.7497Z" fill="#010101" fill-opacity="0.0627451"/>
<path d="M16.5 17.5C16.5 18.6935 16.0259 19.8381 15.182 20.682C14.3381 21.5259 13.1935 22 12 22C10.8065 22 9.66193 21.5259 8.81802 20.682C7.97411 19.8381 7.5 18.6935 7.5 17.5C7.5 15.823 8 14.958 9 14C9 16 10.5 16.5 10.5 16.5C10.5 13.65 11.5 11.958 13.5 11C13.75 13.875 16.5 14.813 16.5 17.5Z" fill="#FE4134"/>
<path opacity="0.2" d="M10.5 16.75C10.5 13.9 11.5 12.208 13.5 11.25C13.745 14.068 16.386 15.029 16.49 17.597C16.491 17.564 16.5 17.533 16.5 17.5C16.5 14.812 13.75 13.875 13.5 11C11.5 11.958 10.5 13.65 10.5 16.5C10.5 16.5 9 16 9 14C8 14.958 7.5 15.823 7.5 17.5C7.5 17.524 7.507 17.546 7.507 17.57C7.544 16.015 8.037 15.172 9 14.25C9 16.25 10.5 16.75 10.5 16.75Z" fill="white"/>
<path opacity="0.1" d="M12 21.7503C10.8195 21.7497 9.68653 21.2847 8.84589 20.4558C8.00524 19.627 7.52433 18.5007 7.507 17.3203C7.506 17.3823 7.5 17.4363 7.5 17.5003C7.5 18.6938 7.97411 19.8384 8.81802 20.6823C9.66193 21.5262 10.8065 22.0003 12 22.0003C13.1935 22.0003 14.3381 21.5262 15.182 20.6823C16.0259 19.8384 16.5 18.6938 16.5 17.5003C16.5 17.4473 16.492 17.3993 16.49 17.3473C16.4662 18.5227 15.9828 19.6419 15.1434 20.465C14.3041 21.2881 13.1756 21.7495 12 21.7503Z" fill="#010101"/>
<path opacity="0.2" d="M9.001 12.199C9 6.25 11 2.25 15 0.25C15.497 6.212 20.925 8.23 20.994 15.123C20.994 15.082 21 15.042 21 15C21 8 15.5 6 15 0C11 2 9 6 9.001 11.949C9.001 11.949 6 11 6 8C4 10 3 11.5 3 15C3 15.036 3.005 15.072 3.005 15.108C3.035 11.715 4.03 10.22 6 8.25C6 11.25 9.001 12.199 9.001 12.199Z" fill="white"/>
</svg>
