<svg width="16" height="16" viewBox="0 0 16 16" fill="none" xmlns="http://www.w3.org/2000/svg">
<g clip-path="url(#clip0_646_779)">
<g clip-path="url(#clip1_646_779)">
<path d="M15.9093 8.17774C15.9093 7.52185 15.8586 7.04322 15.7488 6.54688H8.60693V9.50725H12.799C12.7145 10.2429 12.2581 11.3509 11.2439 12.0954L11.2297 12.1945L13.4878 14.029L13.6442 14.0454C15.081 12.6538 15.9093 10.6063 15.9093 8.17774Z" fill="#4285F4"/>
<path d="M8.60684 15.9776C10.6606 15.9776 12.3848 15.2684 13.6441 14.0453L11.2438 12.0953C10.6015 12.5651 9.73937 12.893 8.60684 12.893C6.59531 12.893 4.88805 11.5015 4.27945 9.57812L4.19025 9.58607L1.84223 11.4917L1.81152 11.5812C3.06239 14.1871 5.63176 15.9776 8.60684 15.9776Z" fill="#34A853"/>
<path d="M4.27929 9.57825C4.11871 9.0819 4.02577 8.55006 4.02577 8.00055C4.02577 7.45098 4.11871 6.91919 4.27084 6.42284L4.26659 6.31713L1.88915 4.38086L1.81136 4.41966C1.29582 5.50102 1 6.71534 1 8.00055C1 9.28575 1.29582 10.5 1.81136 11.5814L4.27929 9.57825Z" fill="#FBBC05"/>
<path d="M8.60684 3.10791C10.0352 3.10791 10.9987 3.75494 11.5481 4.29565L13.6948 2.09749C12.3764 0.812292 10.6606 0.0234375 8.60684 0.0234375C5.63176 0.0234375 3.06239 1.81385 1.81152 4.4197L4.27101 6.42287C4.88805 4.4995 6.59531 3.10791 8.60684 3.10791Z" fill="#EB4335"/>
</g>
</g>
<defs>
<clipPath id="clip0_646_779">
<rect width="16" height="16" fill="white"/>
</clipPath>
<clipPath id="clip1_646_779">
<rect x="1" width="14.9091" height="16" rx="7.45455" fill="white"/>
</clipPath>
</defs>
</svg>
