<svg width="24" height="24" viewBox="0 0 24 24" fill="none" xmlns="http://www.w3.org/2000/svg">
<g clip-path="url(#clip0_318_595)">
<mask id="mask0_318_595" style="mask-type:luminance" maskUnits="userSpaceOnUse" x="0" y="0" width="24" height="24">
<path d="M24 0H0V24H24V0Z" fill="white"/>
</mask>
<g mask="url(#mask0_318_595)">
<path d="M12 22.75H9C3.57 22.75 1.25 20.43 1.25 15V9C1.25 3.57 3.57 1.25 9 1.25H15C20.43 1.25 22.75 3.57 22.75 9V12C22.75 12.41 22.41 12.75 22 12.75C21.59 12.75 21.25 12.41 21.25 12V9C21.25 4.39 19.61 2.75 15 2.75H9C4.39 2.75 2.75 4.39 2.75 9V15C2.75 19.61 4.39 21.25 9 21.25H12C12.41 21.25 12.75 21.59 12.75 22C12.75 22.41 12.41 22.75 12 22.75Z" fill="#494949"/>
<path d="M16.3702 22.7693C16.3602 22.7693 16.3602 22.7693 16.3502 22.7693C15.3402 22.7593 14.5002 22.1393 14.2002 21.1693L12.3502 15.2193C12.1002 14.3993 12.3102 13.5193 12.9202 12.9293C13.5202 12.3393 14.3902 12.1193 15.1902 12.3693L21.1502 14.2193C22.1102 14.5193 22.7402 15.3593 22.7502 16.3693C22.7602 17.3693 22.1502 18.2193 21.1902 18.5393L19.5602 19.0893C19.3302 19.1693 19.1502 19.3393 19.0802 19.5693L18.5202 21.2093C18.2102 22.1593 17.3702 22.7693 16.3702 22.7693ZM14.5102 13.7693C14.2402 13.7693 14.0602 13.9193 13.9802 13.9893C13.7702 14.1993 13.7002 14.4893 13.7902 14.7793L15.6402 20.7293C15.8002 21.2393 16.2202 21.2593 16.3802 21.2693C16.5202 21.2693 16.9502 21.2293 17.1102 20.7393L17.6702 19.0993C17.8902 18.4293 18.4302 17.8993 19.1002 17.6693L20.7302 17.1193C21.2302 16.9593 21.2602 16.5193 21.2602 16.3893C21.2602 16.2593 21.2202 15.8193 20.7202 15.6593L14.7602 13.8093C14.6602 13.7793 14.5802 13.7693 14.5102 13.7693Z" fill="#494949"/>
</g>
</g>
<defs>
<clipPath id="clip0_318_595">
<rect width="24" height="24" fill="white"/>
</clipPath>
</defs>
</svg>
