<svg width="24" height="24" viewBox="0 0 24 24" fill="none" xmlns="http://www.w3.org/2000/svg">
<g clip-path="url(#clip0_325_5167)">
<mask id="mask0_325_5167" style="mask-type:luminance" maskUnits="userSpaceOnUse" x="0" y="0" width="25" height="25">
<path d="M24.307 0.0722656H0.307007V24.0723H24.307V0.0722656Z" fill="white"/>
</mask>
<g mask="url(#mask0_325_5167)">
<path d="M19.219 5.40154C17.279 3.46154 15.379 3.41154 13.389 5.40154L12.179 6.61154C12.079 6.71154 12.039 6.87154 12.079 7.01154C12.839 9.66154 14.959 11.7815 17.609 12.5416C17.649 12.5516 17.689 12.5616 17.729 12.5616C17.839 12.5616 17.939 12.5216 18.019 12.4416L19.219 11.2315C20.209 10.2515 20.689 9.30154 20.689 8.34154C20.699 7.35154 20.219 6.39154 19.219 5.40154Z" fill="#494949"/>
<path d="M15.8091 13.453C15.5191 13.313 15.2391 13.173 14.9691 13.013C14.7491 12.883 14.5391 12.743 14.3291 12.593C14.1591 12.483 13.9591 12.323 13.7691 12.163C13.7491 12.153 13.6791 12.093 13.5991 12.013C13.2691 11.733 12.8991 11.373 12.5691 10.973C12.5391 10.953 12.4891 10.883 12.4191 10.793C12.3191 10.673 12.1491 10.473 11.9991 10.243C11.8791 10.093 11.7391 9.87298 11.6091 9.65298C11.4491 9.38298 11.3091 9.11298 11.1691 8.83298C11.1479 8.78759 11.1274 8.74242 11.1075 8.69752C10.9599 8.3642 10.5253 8.26675 10.2675 8.52451L4.53905 14.253C4.40905 14.383 4.28905 14.633 4.25905 14.803L3.71905 18.633C3.61905 19.313 3.80905 19.953 4.22905 20.383C4.58905 20.733 5.08905 20.923 5.62905 20.923C5.74905 20.923 5.86905 20.913 5.98905 20.893L9.82905 20.353C10.009 20.323 10.2591 20.203 10.3791 20.073L16.1004 14.3517C16.3599 14.0921 16.262 13.6467 15.9244 13.5026C15.8864 13.4864 15.848 13.4698 15.8091 13.453Z" fill="#494949"/>
</g>
</g>
<defs>
<clipPath id="clip0_325_5167">
<rect width="24" height="24" fill="white"/>
</clipPath>
</defs>
</svg>
