<svg width="24" height="24" viewBox="0 0 24 24" fill="none" xmlns="http://www.w3.org/2000/svg">
<g clip-path="url(#clip0_234_803)">
<mask id="mask0_234_803" style="mask-type:luminance" maskUnits="userSpaceOnUse" x="0" y="0" width="24" height="24">
<path d="M24 0H0V24H24V0Z" fill="white"/>
</mask>
<g mask="url(#mask0_234_803)">
<path d="M8.38989 18.4907V8.33071C8.38989 7.93071 8.50989 7.54071 8.72989 7.21071L11.4599 3.15071C11.8899 2.50071 12.9599 2.04071 13.8699 2.38071C14.8499 2.71071 15.4999 3.81071 15.2899 4.79071L14.7699 8.06071C14.7299 8.36071 14.8099 8.63071 14.9799 8.84071C15.1499 9.03071 15.3999 9.15071 15.6699 9.15071H19.7799C20.5699 9.15071 21.2499 9.47071 21.6499 10.0307C22.0299 10.5707 22.0999 11.2707 21.8499 11.9807L19.3899 19.4707C19.0799 20.7107 17.7299 21.7207 16.3899 21.7207H12.4899C11.8199 21.7207 10.8799 21.4907 10.4499 21.0607L9.16989 20.0707C8.67989 19.7007 8.38989 19.1107 8.38989 18.4907Z" fill="#494949"/>
<path d="M5.21 6.38086H4.18C2.63 6.38086 2 6.98086 2 8.46086V18.5209C2 20.0009 2.63 20.6009 4.18 20.6009H5.21C6.76 20.6009 7.39 20.0009 7.39 18.5209V8.46086C7.39 6.98086 6.76 6.38086 5.21 6.38086Z" fill="#494949"/>
</g>
</g>
<defs>
<clipPath id="clip0_234_803">
<rect width="24" height="24" fill="white"/>
</clipPath>
</defs>
</svg>
