<svg width="24" height="24" viewBox="0 0 24 24" fill="none" xmlns="http://www.w3.org/2000/svg">
<g clip-path="url(#clip0_399_649)">
<mask id="mask0_399_649" style="mask-type:luminance" maskUnits="userSpaceOnUse" x="0" y="0" width="24" height="24">
<path d="M24 0H0V24H24V0Z" fill="white"/>
</mask>
<g mask="url(#mask0_399_649)">
<path d="M12.678 19.957C12.9527 20.0209 12.9779 20.3807 12.7103 20.4699L11.1303 20.9899C7.16034 22.2699 5.07034 21.1999 3.78034 17.2299L2.50034 13.2799C1.22034 9.30996 2.28034 7.20996 6.25034 5.92996L6.77433 5.75643C7.1772 5.62301 7.56926 6.02707 7.45487 6.43575C7.39817 6.63832 7.34362 6.84972 7.29034 7.06996L6.31034 11.2599C5.21034 15.9699 6.82034 18.5699 11.5303 19.6899L12.678 19.957Z" fill="#26A1FF"/>
<path d="M17.1701 3.2105L15.5001 2.8205C12.1601 2.0305 10.1701 2.6805 9.00018 5.1005C8.70018 5.7105 8.46018 6.4505 8.26018 7.3005L7.28018 11.4905C6.30018 15.6705 7.59018 17.7305 11.7601 18.7205L13.4401 19.1205C14.0201 19.2605 14.5601 19.3505 15.0601 19.3905C18.1801 19.6905 19.8401 18.2305 20.6801 14.6205L21.6601 10.4405C22.6401 6.2605 21.3601 4.1905 17.1701 3.2105ZM15.2901 13.3305C15.2001 13.6705 14.9001 13.8905 14.5601 13.8905C14.5001 13.8905 14.4401 13.8805 14.3701 13.8705L11.4601 13.1305C11.0601 13.0305 10.8201 12.6205 10.9201 12.2205C11.0201 11.8205 11.4301 11.5805 11.8301 11.6805L14.7401 12.4205C15.1501 12.5205 15.3901 12.9305 15.2901 13.3305ZM18.2201 9.9505C18.1301 10.2905 17.8301 10.5105 17.4901 10.5105C17.4301 10.5105 17.3701 10.5005 17.3001 10.4905L12.4501 9.2605C12.0501 9.1605 11.8101 8.7505 11.9101 8.3505C12.0101 7.9505 12.4201 7.7105 12.8201 7.8105L17.6701 9.0405C18.0801 9.1305 18.3201 9.5405 18.2201 9.9505Z" fill="#26A1FF"/>
</g>
</g>
<defs>
<clipPath id="clip0_399_649">
<rect width="24" height="24" fill="white"/>
</clipPath>
</defs>
</svg>
