<svg width="20" height="20" viewBox="0 0 20 20" fill="none" xmlns="http://www.w3.org/2000/svg">
<g clip-path="url(#clip0_646_94)">
<mask id="mask0_646_94" style="mask-type:luminance" maskUnits="userSpaceOnUse" x="0" y="0" width="20" height="20">
<path d="M20 0H0V20H20V0Z" fill="white"/>
</mask>
<g mask="url(#mask0_646_94)">
<path d="M9.99984 1.66699C5.40817 1.66699 1.6665 5.40866 1.6665 10.0003C1.6665 14.592 5.40817 18.3337 9.99984 18.3337C14.5915 18.3337 18.3332 14.592 18.3332 10.0003C18.3332 5.40866 14.5915 1.66699 9.99984 1.66699ZM13.9832 8.08366L9.25817 12.8087C9.1415 12.9253 8.98317 12.992 8.8165 12.992C8.64984 12.992 8.4915 12.9253 8.37484 12.8087L6.0165 10.4503C5.77484 10.2087 5.77484 9.80866 6.0165 9.56699C6.25817 9.32533 6.65817 9.32533 6.89984 9.56699L8.8165 11.4837L13.0998 7.20033C13.3415 6.95866 13.7415 6.95866 13.9832 7.20033C14.2248 7.44199 14.2248 7.83366 13.9832 8.08366Z" fill="#29E77F"/>
</g>
</g>
<defs>
<clipPath id="clip0_646_94">
<rect width="20" height="20" fill="white"/>
</clipPath>
</defs>
</svg>
