<svg width="16" height="16" viewBox="0 0 16 16" fill="none" xmlns="http://www.w3.org/2000/svg">
<path d="M14.2501 7.9997C14.2501 8.19861 14.1711 8.38938 14.0304 8.53003C13.8898 8.67068 13.699 8.7497 13.5001 8.7497H4.3126L7.5326 11.9691C7.6735 12.11 7.75265 12.3011 7.75265 12.5003C7.75265 12.6996 7.6735 12.8907 7.5326 13.0316C7.39171 13.1725 7.20061 13.2516 7.00135 13.2516C6.8021 13.2516 6.611 13.1725 6.4701 13.0316L1.9701 8.53157C1.90018 8.4619 1.84471 8.3791 1.80685 8.28794C1.769 8.19677 1.74951 8.09903 1.74951 8.00032C1.74951 7.90161 1.769 7.80387 1.80685 7.71271C1.84471 7.62155 1.90018 7.53875 1.9701 7.46907L6.4701 2.96907C6.53987 2.89931 6.62269 2.84397 6.71384 2.80621C6.80499 2.76846 6.90269 2.74902 7.00135 2.74902C7.10002 2.74902 7.19771 2.76846 7.28886 2.80621C7.38002 2.84397 7.46284 2.89931 7.5326 2.96907C7.60237 3.03884 7.65771 3.12166 7.69546 3.21281C7.73322 3.30397 7.75265 3.40166 7.75265 3.50032C7.75265 3.59899 7.73322 3.69668 7.69546 3.78783C7.65771 3.87899 7.60237 3.96181 7.5326 4.03157L4.3126 7.2497H13.5001C13.699 7.2497 13.8898 7.32872 14.0304 7.46937C14.1711 7.61002 14.2501 7.80079 14.2501 7.9997Z" fill="#494949" fill-opacity="0.7"/>
</svg>
