<svg width="12" height="12" viewBox="0 0 12 12" fill="none" xmlns="http://www.w3.org/2000/svg">
<path d="M8.64746 6.39844L4.89746 10.1484C4.79179 10.2541 4.64847 10.3135 4.49902 10.3135C4.34958 10.3135 4.20626 10.2541 4.10058 10.1484C3.99491 10.0428 3.93555 9.89944 3.93555 9.75C3.93555 9.60056 3.99491 9.45723 4.10058 9.35156L7.45262 6.00047L4.10152 2.64844C4.0492 2.59611 4.00769 2.534 3.97938 2.46563C3.95106 2.39727 3.93648 2.324 3.93648 2.25C3.93648 2.176 3.95106 2.10273 3.97938 2.03437C4.00769 1.966 4.0492 1.90389 4.10152 1.85156C4.15385 1.79924 4.21596 1.75773 4.28433 1.72942C4.35269 1.7011 4.42596 1.68652 4.49996 1.68652C4.57396 1.68652 4.64723 1.7011 4.71559 1.72942C4.78396 1.75773 4.84607 1.79924 4.8984 1.85156L8.6484 5.60156C8.70078 5.65388 8.74231 5.71603 8.77062 5.78443C8.79893 5.85284 8.81346 5.92616 8.81337 6.00019C8.81329 6.07423 8.79858 6.14751 8.77011 6.21585C8.74164 6.28419 8.69996 6.34624 8.64746 6.39844Z" fill="#494949"/>
</svg>
