<svg width="80" height="80" viewBox="0 0 80 80" fill="none" xmlns="http://www.w3.org/2000/svg">
<path d="M73.344 19.9966C69.6616 19.9966 66.6763 22.9819 66.6763 26.6643C66.6777 27.3633 66.7903 28.0577 67.0097 28.7214L61.6021 32.1586C58.0418 34.427 53.3477 33.6752 50.6738 30.4083L45.3731 23.9241C46.2167 22.7885 46.6726 21.4115 46.6732 19.9968C46.6732 16.3144 43.688 13.3291 40.0055 13.3291C36.3231 13.3291 33.3379 16.3144 33.3379 19.9968C33.3385 21.4115 33.7944 22.7885 34.638 23.9241L29.3373 30.4083C26.6639 33.6733 21.972 34.425 18.4124 32.1586L13.0019 28.7214C13.2215 28.0577 13.334 27.3634 13.3352 26.6643C13.3359 22.9819 10.3512 19.9962 6.66863 19.9955C2.98637 19.9949 0.000625203 22.9797 1.10927e-07 26.6621C-0.000624981 30.1189 2.6407 33.0029 6.08417 33.3053L10.0247 56.9421C10.0894 57.3313 10.2901 57.6849 10.5911 57.9401C10.892 58.1952 11.2737 58.3354 11.6683 58.3355H68.3433C68.7378 58.3354 69.1196 58.1952 69.4205 57.9401C69.7214 57.6849 69.9221 57.3313 69.9868 56.9421L73.9274 33.3053C77.5951 32.9764 80.3018 29.7363 79.9728 26.0686C79.665 22.6355 76.7909 20.003 73.344 19.9966Z" fill="#FFC107"/>
<path d="M40.0054 65.003C55.6557 65.003 68.3428 61.2715 68.3428 56.6685C68.3428 52.0655 55.6557 48.334 40.0054 48.334C24.3551 48.334 11.668 52.0655 11.668 56.6685C11.668 61.2715 24.3551 65.003 40.0054 65.003Z" fill="#FFA000"/>
<path d="M40.0064 66.6699C25.0942 66.6699 10.002 63.2361 10.002 56.6685C10.002 50.1008 25.0942 46.667 40.0064 46.667C54.9185 46.667 70.0107 50.1008 70.0107 56.6685C70.0107 63.2361 54.9185 66.6699 40.0064 66.6699ZM40.0064 50.0008C22.4971 50.0008 13.3357 54.3347 13.3357 56.6685C13.3357 59.0022 22.4971 63.3362 40.0064 63.3362C57.5156 63.3362 66.677 59.0022 66.677 56.6685C66.677 54.3347 57.5156 50.0008 40.0064 50.0008Z" fill="#FFD54F"/>
</svg>
