<svg width="28" height="28" viewBox="0 0 28 28" fill="none" xmlns="http://www.w3.org/2000/svg">
<g clip-path="url(#clip0_325_5059)">
<mask id="mask0_325_5059" style="mask-type:luminance" maskUnits="userSpaceOnUse" x="0" y="0" width="28" height="28">
<path d="M28 0H0V28H28V0Z" fill="white"/>
</mask>
<g mask="url(#mask0_325_5059)">
<path d="M13.9997 26.5413H10.4997C4.16467 26.5413 1.45801 23.8347 1.45801 17.4997V10.4997C1.45801 4.16467 4.16467 1.45801 10.4997 1.45801H17.4997C23.8347 1.45801 26.5413 4.16467 26.5413 10.4997V13.9997C26.5413 14.478 26.1447 14.8747 25.6663 14.8747C25.188 14.8747 24.7913 14.478 24.7913 13.9997V10.4997C24.7913 5.12134 22.878 3.20801 17.4997 3.20801H10.4997C5.12134 3.20801 3.20801 5.12134 3.20801 10.4997V17.4997C3.20801 22.878 5.12134 24.7913 10.4997 24.7913H13.9997C14.478 24.7913 14.8747 25.188 14.8747 25.6663C14.8747 26.1447 14.478 26.5413 13.9997 26.5413Z" fill="#494949"/>
<path d="M19.0984 26.5635C19.0867 26.5635 19.0867 26.5635 19.0751 26.5635C17.8967 26.5518 16.9167 25.8285 16.5667 24.6968L14.4084 17.7552C14.1167 16.7985 14.3617 15.7718 15.0734 15.0835C15.7734 14.3952 16.7884 14.1385 17.7217 14.4302L24.6751 16.5885C25.7951 16.9385 26.5301 17.9185 26.5417 19.0968C26.5534 20.2635 25.8417 21.2552 24.7217 21.6285L22.8201 22.2702C22.5517 22.3635 22.3417 22.5618 22.2601 22.8302L21.6067 24.7435C21.2451 25.8518 20.2651 26.5635 19.0984 26.5635ZM16.9284 16.0635C16.6134 16.0635 16.4034 16.2385 16.3101 16.3202C16.0651 16.5652 15.9834 16.9035 16.0884 17.2418L18.2467 24.1835C18.4334 24.7785 18.9234 24.8018 19.1101 24.8135C19.2734 24.8135 19.7751 24.7668 19.9617 24.1952L20.6151 22.2818C20.8717 21.5002 21.5017 20.8818 22.2834 20.6135L24.1851 19.9718C24.7684 19.7852 24.8034 19.2718 24.8034 19.1202C24.8034 18.9685 24.7567 18.4552 24.1734 18.2685L17.2201 16.1102C17.1034 16.0752 17.0101 16.0635 16.9284 16.0635Z" fill="#494949"/>
</g>
</g>
<defs>
<clipPath id="clip0_325_5059">
<rect width="28" height="28" fill="white"/>
</clipPath>
</defs>
</svg>
