<svg width="20" height="20" viewBox="0 0 20 20" fill="none" xmlns="http://www.w3.org/2000/svg">
<g clip-path="url(#clip0_223_263)">
<mask id="mask0_223_263" style="mask-type:luminance" maskUnits="userSpaceOnUse" x="0" y="0" width="20" height="20">
<path d="M20 0H0V20H20V0Z" fill="white"/>
</mask>
<g mask="url(#mask0_223_263)">
<path d="M10 18.275C5.8 18.275 2.375 14.8583 2.375 10.65V9.08333C2.375 8.75833 2.64167 8.5 2.95833 8.5C3.275 8.5 3.54167 8.76667 3.54167 9.08333V10.65C3.54167 14.2083 6.43333 17.1 9.99167 17.1C13.55 17.1 16.4417 14.2083 16.4417 10.65V9.08333C16.4417 8.75833 16.7083 8.5 17.025 8.5C17.3417 8.5 17.6083 8.76667 17.6083 9.08333V10.65C17.625 14.8583 14.2 18.275 10 18.275Z" fill="#494949"/>
<path d="M9.99984 1.6665C7.19984 1.6665 4.9165 3.94984 4.9165 6.74984V10.6582C4.9165 13.4582 7.19984 15.7415 9.99984 15.7415C12.7998 15.7415 15.0832 13.4582 15.0832 10.6582V6.74984C15.0832 3.94984 12.7998 1.6665 9.99984 1.6665ZM11.8165 8.82484C11.7582 9.04984 11.5498 9.19984 11.3248 9.19984C11.2832 9.19984 11.2332 9.1915 11.1915 9.18317C10.3415 8.94984 9.4415 8.94984 8.5915 9.18317C8.3165 9.25817 8.0415 9.09984 7.9665 8.82484C7.8915 8.55817 8.04984 8.27484 8.32484 8.19984C9.34984 7.9165 10.4332 7.9165 11.4582 8.19984C11.7332 8.27484 11.8915 8.54984 11.8165 8.82484ZM12.5248 6.5165C12.4498 6.72484 12.2582 6.84984 12.0498 6.84984C11.9915 6.84984 11.9332 6.8415 11.8748 6.8165C10.5998 6.34984 9.19984 6.34984 7.92484 6.8165C7.65817 6.9165 7.3665 6.78317 7.2665 6.5165C7.17484 6.25817 7.30817 5.9665 7.57484 5.8665C9.07484 5.32484 10.7248 5.32484 12.2165 5.8665C12.4832 5.9665 12.6165 6.25817 12.5248 6.5165Z" fill="#494949"/>
<path d="M11.8165 8.82484C11.7582 9.04984 11.5498 9.19984 11.3248 9.19984C11.2832 9.19984 11.2332 9.1915 11.1915 9.18317C10.3415 8.94984 9.4415 8.94984 8.5915 9.18317C8.3165 9.25817 8.0415 9.09984 7.9665 8.82484C7.8915 8.55817 8.04984 8.27484 8.32484 8.19984C9.34984 7.9165 10.4332 7.9165 11.4582 8.19984C11.7332 8.27484 11.8915 8.54984 11.8165 8.82484Z" fill="#494949"/>
<path d="M12.5248 6.5165C12.4498 6.72484 12.2582 6.84984 12.0498 6.84984C11.9915 6.84984 11.9332 6.8415 11.8748 6.8165C10.5998 6.34984 9.19984 6.34984 7.92484 6.8165C7.65817 6.9165 7.3665 6.78317 7.2665 6.5165C7.17484 6.25817 7.30817 5.9665 7.57484 5.8665C9.07484 5.32484 10.7248 5.32484 12.2165 5.8665C12.4832 5.9665 12.6165 6.25817 12.5248 6.5165Z" fill="#494949"/>
</g>
</g>
<defs>
<clipPath id="clip0_223_263">
<rect width="20" height="20" fill="white"/>
</clipPath>
</defs>
</svg>
