<svg width="20" height="20" viewBox="0 0 20 20" fill="none" xmlns="http://www.w3.org/2000/svg">
<g clip-path="url(#clip0_549_225)">
<mask id="mask0_549_225" style="mask-type:luminance" maskUnits="userSpaceOnUse" x="0" y="0" width="20" height="20">
<path d="M20 0H0V20H20V0Z" fill="white"/>
</mask>
<g mask="url(#mask0_549_225)">
<path d="M2.15065 15.8424L2.13398 15.859C1.90898 15.3674 1.76732 14.809 1.70898 14.1924C1.76732 14.8007 1.92565 15.3507 2.15065 15.8424Z" fill="#26A1FF"/>
<path d="M7.50091 8.65024C8.59631 8.65024 9.48423 7.76229 9.48423 6.66693C9.48423 5.57156 8.59631 4.68359 7.50091 4.68359C6.40554 4.68359 5.51758 5.57156 5.51758 6.66693C5.51758 7.76229 6.40554 8.65024 7.50091 8.65024Z" fill="#26A1FF"/>
<path d="M13.492 1.66699H6.50866C3.47533 1.66699 1.66699 3.47533 1.66699 6.50866V13.492C1.66699 14.4003 1.82533 15.192 2.13366 15.8587C2.85033 17.442 4.38366 18.3337 6.50866 18.3337H13.492C16.5253 18.3337 18.3337 16.5253 18.3337 13.492V11.5837V6.50866C18.3337 3.47533 16.5253 1.66699 13.492 1.66699ZM16.9753 10.417C16.3253 9.85866 15.2753 9.85866 14.6253 10.417L11.1587 13.392C10.5087 13.9503 9.45866 13.9503 8.80866 13.392L8.52532 13.1587C7.93366 12.642 6.99199 12.592 6.32533 13.042L3.20866 15.1337C3.02533 14.667 2.91699 14.1253 2.91699 13.492V6.50866C2.91699 4.15866 4.15866 2.91699 6.50866 2.91699H13.492C15.842 2.91699 17.0837 4.15866 17.0837 6.50866V10.5087L16.9753 10.417Z" fill="#26A1FF"/>
</g>
</g>
<defs>
<clipPath id="clip0_549_225">
<rect width="20" height="20" fill="white"/>
</clipPath>
</defs>
</svg>
