<svg width="20" height="20" viewBox="0 0 20 20" fill="none" xmlns="http://www.w3.org/2000/svg">
<g clip-path="url(#clip0_549_249)">
<mask id="mask0_549_249" style="mask-type:luminance" maskUnits="userSpaceOnUse" x="0" y="0" width="20" height="20">
<path d="M20 0H0V20H20V0Z" fill="white"/>
</mask>
<g mask="url(#mask0_549_249)">
<path d="M16.6667 5.62533C17.9323 5.62533 18.9583 4.59931 18.9583 3.33366C18.9583 2.06801 17.9323 1.04199 16.6667 1.04199C15.401 1.04199 14.375 2.06801 14.375 3.33366C14.375 4.59931 15.401 5.62533 16.6667 5.62533Z" fill="#FD8B34"/>
<path d="M15.867 6.79199C14.5587 6.50866 13.492 5.44199 13.2087 4.13366C13.1003 3.62533 13.092 3.13366 13.1837 2.66699C13.292 2.15033 12.9087 1.66699 12.3753 1.66699H5.83366C3.53366 1.66699 1.66699 3.53366 1.66699 5.83366V11.6253C1.66699 13.9253 3.53366 15.792 5.83366 15.792H7.08366C7.31699 15.792 7.61699 15.942 7.75033 16.1253L9.00033 17.7837C9.55033 18.517 10.4503 18.517 11.0003 17.7837L12.2503 16.1253C12.4087 15.917 12.6503 15.792 12.917 15.792H14.1753C16.4753 15.792 18.3337 13.9337 18.3337 11.6337V7.62533C18.3337 7.10033 17.8503 6.71699 17.3337 6.81699C16.867 6.90033 16.3753 6.90033 15.867 6.79199ZM6.66699 10.0003C6.20033 10.0003 5.83366 9.62533 5.83366 9.16699C5.83366 8.70866 6.20033 8.33366 6.66699 8.33366C7.12533 8.33366 7.50033 8.70866 7.50033 9.16699C7.50033 9.62533 7.13366 10.0003 6.66699 10.0003ZM10.0003 10.0003C9.53366 10.0003 9.16699 9.62533 9.16699 9.16699C9.16699 8.70866 9.53366 8.33366 10.0003 8.33366C10.4587 8.33366 10.8337 8.70866 10.8337 9.16699C10.8337 9.62533 10.467 10.0003 10.0003 10.0003ZM13.3337 10.0003C12.867 10.0003 12.5003 9.62533 12.5003 9.16699C12.5003 8.70866 12.867 8.33366 13.3337 8.33366C13.792 8.33366 14.167 8.70866 14.167 9.16699C14.167 9.62533 13.8003 10.0003 13.3337 10.0003Z" fill="#FD8B34"/>
</g>
</g>
<defs>
<clipPath id="clip0_549_249">
<rect width="20" height="20" fill="white"/>
</clipPath>
</defs>
</svg>
