<svg width="20" height="20" viewBox="0 0 20 20" fill="none" xmlns="http://www.w3.org/2000/svg">
<g clip-path="url(#clip0_223_423)">
<mask id="mask0_223_423" style="mask-type:luminance" maskUnits="userSpaceOnUse" x="0" y="0" width="20" height="20">
<path d="M20 0H0V20H20V0Z" fill="white"/>
</mask>
<g mask="url(#mask0_223_423)">
<path d="M14.6833 4.7665L5.84157 13.6082C5.23324 12.7832 4.8999 11.7748 4.8999 10.6832V6.75817C4.8999 5.22484 5.58324 3.84984 6.66657 2.9165V6.3665C6.66657 6.6915 6.93324 6.95817 7.2499 6.95817C7.5749 6.95817 7.84157 6.6915 7.84157 6.3665V2.1415C8.2249 1.94984 8.63325 1.8165 9.05825 1.7415V4.7915C9.05825 5.12484 9.32492 5.38317 9.64992 5.38317C9.97492 5.38317 10.2416 5.12484 10.2416 4.7915V1.6665C12.2333 1.75817 13.9499 3.00817 14.6833 4.7665Z" fill="white"/>
<path d="M6.66657 2.9165V6.3665C6.66657 6.6915 6.93324 6.95817 7.2499 6.95817C7.5749 6.95817 7.84157 6.6915 7.84157 6.3665V2.1415L6.66657 2.9165Z" fill="white"/>
<path d="M9.05825 1.7415V4.7915C9.05825 5.12484 9.32492 5.38317 9.64992 5.38317C9.97492 5.38317 10.2416 5.12484 10.2416 4.7915V1.6665L9.05825 1.7415Z" fill="white"/>
<path d="M15.0998 7.3999V10.6833C15.0998 13.4916 12.8081 15.7833 9.9998 15.7833C9.8498 15.7833 9.6998 15.7749 9.5498 15.7583C9.48313 15.7583 9.41646 15.7499 9.35813 15.7416C9.2498 15.7249 9.14146 15.7083 9.04146 15.6916C8.9998 15.6916 8.96646 15.6749 8.91646 15.6666C8.7998 15.6416 8.68313 15.6083 8.5748 15.5749C8.39146 15.5249 8.21647 15.4583 8.0498 15.3916C7.94147 15.3499 7.84147 15.3083 7.74147 15.2499C7.71647 15.2416 7.6998 15.2249 7.6748 15.2166C7.59147 15.1749 7.50814 15.1333 7.4248 15.0749L15.0998 7.3999Z" fill="white"/>
<path d="M18.1249 9.1665V10.8332C18.1249 15.3165 14.4832 18.9582 9.99988 18.9582C8.23324 18.9582 6.54157 18.3915 5.1499 17.3498L6.0499 16.4498C7.1999 17.2665 8.56654 17.7082 9.99988 17.7082C13.7915 17.7082 16.8749 14.6248 16.8749 10.8332V9.1665C16.8749 8.82484 17.1582 8.5415 17.4999 8.5415C17.8415 8.5415 18.1249 8.82484 18.1249 9.1665Z" fill="white"/>
<path d="M18.1415 1.85791C17.8915 1.60791 17.4832 1.60791 17.2332 1.85791L1.85815 17.2413C1.60815 17.4913 1.60815 17.8996 1.85815 18.1496C1.98315 18.2663 2.14149 18.3329 2.30815 18.3329C2.47482 18.3329 2.63315 18.2663 2.75815 18.1413L18.1415 2.75791C18.3998 2.50791 18.3998 2.10791 18.1415 1.85791Z" fill="white"/>
</g>
</g>
<defs>
<clipPath id="clip0_223_423">
<rect width="20" height="20" fill="white"/>
</clipPath>
</defs>
</svg>
