<svg width="20" height="20" viewBox="0 0 20 20" fill="none" xmlns="http://www.w3.org/2000/svg">
<g clip-path="url(#clip0_595_2260)">
<mask id="mask0_595_2260" style="mask-type:luminance" maskUnits="userSpaceOnUse" x="0" y="0" width="20" height="20">
<path d="M20 0H0V20H20V0Z" fill="white"/>
</mask>
<g mask="url(#mask0_595_2260)">
<path d="M10.0001 1.66699C5.40841 1.66699 1.66675 5.40866 1.66675 10.0003C1.66675 14.592 5.40841 18.3337 10.0001 18.3337C14.5917 18.3337 18.3334 14.592 18.3334 10.0003C18.3334 5.40866 14.5917 1.66699 10.0001 1.66699ZM12.8001 11.917C13.0417 12.1587 13.0417 12.5587 12.8001 12.8003C12.6751 12.9253 12.5167 12.9837 12.3584 12.9837C12.2001 12.9837 12.0417 12.9253 11.9167 12.8003L10.0001 10.8837L8.08341 12.8003C7.95841 12.9253 7.80008 12.9837 7.64175 12.9837C7.48341 12.9837 7.32508 12.9253 7.20008 12.8003C6.95841 12.5587 6.95841 12.1587 7.20008 11.917L9.11675 10.0003L7.20008 8.08366C6.95841 7.84199 6.95841 7.44199 7.20008 7.20033C7.44175 6.95866 7.84175 6.95866 8.08341 7.20033L10.0001 9.11699L11.9167 7.20033C12.1584 6.95866 12.5584 6.95866 12.8001 7.20033C13.0417 7.44199 13.0417 7.84199 12.8001 8.08366L10.8834 10.0003L12.8001 11.917Z" fill="#494949"/>
</g>
</g>
<defs>
<clipPath id="clip0_595_2260">
<rect width="20" height="20" fill="white"/>
</clipPath>
</defs>
</svg>
