<svg width="20" height="20" viewBox="0 0 20 20" fill="none" xmlns="http://www.w3.org/2000/svg">
<g clip-path="url(#clip0_616_1842)">
<mask id="mask0_616_1842" style="mask-type:luminance" maskUnits="userSpaceOnUse" x="0" y="0" width="20" height="20">
<path d="M20 0H0V20H20V0Z" fill="white"/>
</mask>
<g mask="url(#mask0_616_1842)">
<path d="M9.99992 3.87598C6.01657 3.87598 2.7749 7.11764 2.7749 11.101C2.7749 15.0843 6.01657 18.3343 9.99992 18.3343C13.9833 18.3343 17.2249 15.0927 17.2249 11.1093C17.2249 7.12598 13.9833 3.87598 9.99992 3.87598ZM10.6249 10.8343C10.6249 11.176 10.3416 11.4593 9.99992 11.4593C9.65825 11.4593 9.37492 11.176 9.37492 10.8343V6.66764C9.37492 6.32598 9.65825 6.04264 9.99992 6.04264C10.3416 6.04264 10.6249 6.32598 10.6249 6.66764V10.8343Z" fill="#494949"/>
<path d="M12.4079 2.87533H7.59121C7.25788 2.87533 6.99121 2.60866 6.99121 2.27533C6.99121 1.94199 7.25788 1.66699 7.59121 1.66699H12.4079C12.7412 1.66699 13.0079 1.93366 13.0079 2.26699C13.0079 2.60033 12.7412 2.87533 12.4079 2.87533Z" fill="#494949"/>
</g>
</g>
<defs>
<clipPath id="clip0_616_1842">
<rect width="20" height="20" fill="white"/>
</clipPath>
</defs>
</svg>
