<svg width="12" height="12" viewBox="0 0 12 12" fill="none" xmlns="http://www.w3.org/2000/svg">
<g clip-path="url(#clip0_597_744)">
<mask id="mask0_597_744" style="mask-type:luminance" maskUnits="userSpaceOnUse" x="0" y="0" width="12" height="12">
<path d="M12 0H0V12H12V0Z" fill="white"/>
</mask>
<g mask="url(#mask0_597_744)">
<path d="M8.80946 2.86L3.50445 8.165C3.13945 7.67 2.93945 7.065 2.93945 6.41V4.055C2.93945 3.135 3.34945 2.31 3.99945 1.75V3.82C3.99945 4.015 4.15945 4.175 4.34945 4.175C4.54445 4.175 4.70445 4.015 4.70445 3.82V1.285C4.93445 1.17 5.17946 1.09 5.43446 1.045V2.875C5.43446 3.075 5.59446 3.23 5.78946 3.23C5.98446 3.23 6.14446 3.075 6.14446 2.875V1C7.33946 1.055 8.36946 1.805 8.80946 2.86Z" fill="#FC5D62"/>
<path d="M3.99945 1.75V3.82C3.99945 4.015 4.15945 4.175 4.34945 4.175C4.54445 4.175 4.70445 4.015 4.70445 3.82V1.285L3.99945 1.75Z" fill="#FC5D62"/>
<path d="M5.43446 1.045V2.875C5.43446 3.075 5.59446 3.23 5.78946 3.23C5.98446 3.23 6.14446 3.075 6.14446 2.875V1L5.43446 1.045Z" fill="#FC5D62"/>
<path d="M9.0591 4.43945V6.40946C9.0591 8.09446 7.6841 9.46946 5.9991 9.46946C5.9091 9.46946 5.8191 9.46446 5.7291 9.45446C5.6891 9.45446 5.6491 9.44946 5.6141 9.44446C5.5491 9.43446 5.4841 9.42446 5.4241 9.41446C5.3991 9.41446 5.3791 9.40446 5.3491 9.39946C5.2791 9.38446 5.2091 9.36446 5.1441 9.34446C5.0341 9.31446 4.9291 9.27446 4.8291 9.23446C4.7641 9.20946 4.7041 9.18446 4.6441 9.14946C4.6291 9.14446 4.6191 9.13446 4.6041 9.12946C4.5541 9.10446 4.5041 9.07946 4.4541 9.04446L9.0591 4.43945Z" fill="#FC5D62"/>
<path d="M10.8748 5.5V6.5C10.8748 9.19 8.68983 11.375 5.99983 11.375C4.93984 11.375 3.92484 11.035 3.08984 10.41L3.62984 9.87C4.31984 10.36 5.13983 10.625 5.99983 10.625C8.27483 10.625 10.1248 8.775 10.1248 6.5V5.5C10.1248 5.295 10.2948 5.125 10.4998 5.125C10.7048 5.125 10.8748 5.295 10.8748 5.5Z" fill="#FC5D62"/>
<path d="M10.8845 1.11445C10.7345 0.964453 10.4895 0.964453 10.3395 1.11445L1.11445 10.3445C0.964453 10.4945 0.964453 10.7395 1.11445 10.8895C1.18945 10.9595 1.28445 10.9995 1.38445 10.9995C1.48445 10.9995 1.57945 10.9595 1.65445 10.8845L10.8845 1.65445C11.0395 1.50445 11.0395 1.26445 10.8845 1.11445Z" fill="#FC5D62"/>
</g>
</g>
<defs>
<clipPath id="clip0_597_744">
<rect width="12" height="12" fill="white"/>
</clipPath>
</defs>
</svg>
