<svg width="78" height="80" viewBox="0 0 78 80" fill="none" xmlns="http://www.w3.org/2000/svg">
<path d="M6.3208 73.4692L38.5708 60.2036C39.4614 59.8442 39.7583 58.7661 39.227 57.8598C37.727 55.3286 34.5708 50.4067 30.5708 46.4067C26.6958 42.5317 21.9927 39.5629 19.5395 38.1411C18.6489 37.6254 17.5864 37.9379 17.227 38.8129L3.94579 71.0942C3.36767 72.5005 4.93017 74.0474 6.3208 73.4692Z" fill="#FCB424"/>
<path d="M39.3829 59.2496C38.4297 60.2027 32.7422 56.5621 26.8047 50.6246C20.8672 44.6871 17.2266 38.984 18.1641 38.0309C19.1172 37.0777 24.836 40.6871 30.7891 46.6402C36.7422 52.5934 40.3204 58.3121 39.3829 59.2496Z" fill="#D67909"/>
<path d="M19.7266 67.9531L12.1953 71.0625L6.36719 65.2188L9.46094 57.6875L19.7266 67.9531ZM33.3828 62.3438L25.8516 65.4375L11.9766 51.5625L15.0703 44.0312L33.3828 62.3438Z" fill="#ED3F03"/>
<path d="M15.5391 20.5469C16.8162 20.5469 17.8516 19.5115 17.8516 18.2344C17.8516 16.9572 16.8162 15.9219 15.5391 15.9219C14.2619 15.9219 13.2266 16.9572 13.2266 18.2344C13.2266 19.5115 14.2619 20.5469 15.5391 20.5469Z" fill="#FCB424"/>
<path d="M15.5391 6.09375C16.8203 6.09375 17.8516 7.125 17.8516 8.40625V12.6562C17.8516 13.9375 16.8203 14.9687 15.5391 14.9687C14.2734 14.9687 13.2266 13.9375 13.2266 12.6562V8.40625C13.2266 7.125 14.2734 6.09375 15.5391 6.09375ZM5.71094 15.9219H9.96094C11.2422 15.9219 12.2734 16.9531 12.2734 18.2344C12.2734 19.5156 11.2422 20.5469 9.96094 20.5469H5.71094C4.42969 20.5469 3.39844 19.5156 3.39844 18.2344C3.39844 16.9531 4.42969 15.9219 5.71094 15.9219ZM15.5391 21.5C16.8203 21.5 17.8516 22.5312 17.8516 23.8125V28.0625C17.8516 29.3437 16.8203 30.375 15.5391 30.375C14.2578 30.375 13.2266 29.3437 13.2266 28.0625V23.8125C13.2266 22.5312 14.2734 21.5 15.5391 21.5ZM21.1172 15.9219H25.3672C26.6484 15.9219 27.6797 16.9531 27.6797 18.2344C27.6797 19.5156 26.6484 20.5469 25.3672 20.5469H21.1172C19.8359 20.5469 18.8047 19.5156 18.8047 18.2344C18.8047 16.9531 19.8359 15.9219 21.1172 15.9219Z" fill="#FCB424"/>
<path d="M64.9453 62.8437C66.2225 62.8437 67.2578 61.8084 67.2578 60.5312C67.2578 59.2541 66.2225 58.2188 64.9453 58.2188C63.6682 58.2188 62.6328 59.2541 62.6328 60.5312C62.6328 61.8084 63.6682 62.8437 64.9453 62.8437Z" fill="#00C853"/>
<path d="M64.9453 48.3906C66.2266 48.3906 67.2578 49.4219 67.2578 50.7031V54.9531C67.2578 56.2344 66.2266 57.2656 64.9453 57.2656C63.6641 57.2656 62.6328 56.2344 62.6328 54.9531V50.7031C62.6328 49.4219 63.6641 48.3906 64.9453 48.3906ZM55.1172 58.2187H59.3672C60.6484 58.2187 61.6797 59.25 61.6797 60.5312C61.6797 61.8125 60.6484 62.8437 59.3672 62.8437H55.1172C53.8359 62.8437 52.8047 61.8125 52.8047 60.5312C52.8047 59.25 53.8359 58.2187 55.1172 58.2187ZM64.9453 63.7969C66.2266 63.7969 67.2578 64.8281 67.2578 66.1094V70.3594C67.2578 71.6406 66.2266 72.6719 64.9453 72.6719C63.6641 72.6719 62.6328 71.6406 62.6328 70.3594V66.1094C62.6328 64.8281 63.6641 63.7969 64.9453 63.7969ZM70.5234 58.2187H74.7734C76.0547 58.2187 77.0859 59.25 77.0859 60.5312C77.0859 61.8125 76.0547 62.8437 74.7734 62.8437H70.5234C69.2422 62.8437 68.2109 61.8125 68.2109 60.5312C68.2109 59.25 69.2422 58.2187 70.5234 58.2187Z" fill="#00C853"/>
<path d="M61.6797 17.2812C62.9568 17.2812 63.9922 16.2459 63.9922 14.9687C63.9922 13.6916 62.9568 12.6562 61.6797 12.6562C60.4025 12.6562 59.3672 13.6916 59.3672 14.9687C59.3672 16.2459 60.4025 17.2812 61.6797 17.2812Z" fill="#07B7EE"/>
<path d="M61.6797 2.82812C62.9609 2.82812 63.9922 3.85938 63.9922 5.14062V9.39062C63.9922 10.6719 62.9609 11.7031 61.6797 11.7031C60.3984 11.7031 59.3672 10.6719 59.3672 9.39062V5.14062C59.3672 3.85938 60.4141 2.82812 61.6797 2.82812ZM49.5391 14.9687C49.5391 13.6875 50.5703 12.6562 51.8516 12.6562H56.1016C57.3828 12.6562 58.4141 13.6875 58.4141 14.9687C58.4141 16.25 57.3828 17.2812 56.1016 17.2812H51.8516C50.5859 17.2812 49.5391 16.25 49.5391 14.9687ZM61.6797 27.1094C60.3984 27.1094 59.3672 26.0781 59.3672 24.7969V20.5469C59.3672 19.2656 60.3984 18.2344 61.6797 18.2344C62.9609 18.2344 63.9922 19.2656 63.9922 20.5469V24.7969C64.0078 26.0781 62.9609 27.1094 61.6797 27.1094ZM73.8359 14.9687C73.8359 16.25 72.8047 17.2812 71.5234 17.2812H67.2734C65.9922 17.2812 64.9609 16.25 64.9609 14.9687C64.9609 13.6875 65.9922 12.6562 67.2734 12.6562H71.5234C72.7891 12.6562 73.8359 13.6875 73.8359 14.9687Z" fill="#07B7EE"/>
<path d="M24.7418 47.4528C23.5543 46.9997 22.9449 45.6715 23.3981 44.4684C23.6168 43.9059 24.0231 43.4528 24.5699 43.2028C26.5856 42.2497 29.0543 40.6872 29.3668 38.6403C29.6637 36.7497 28.0543 34.7497 27.3668 34.109C26.6324 33.4997 22.5387 29.7965 23.4918 25.6715C24.1324 22.9215 26.7262 20.9684 31.2106 19.8903C34.1793 19.1715 35.3981 18.234 35.5387 17.5778C35.7574 16.609 34.3043 14.7965 33.1949 13.8903C32.2106 13.0778 32.0699 11.6247 32.8824 10.6403C33.6793 9.67155 35.1168 9.5153 36.1012 10.2966C36.6012 10.7028 40.9762 14.3903 40.0387 18.5778C39.4137 21.3278 36.8199 23.2653 32.2887 24.359C29.3512 25.0622 28.1324 26.0309 27.9762 26.6872C27.7418 27.7028 29.2418 29.6403 30.3668 30.5934L30.4449 30.6559C30.6168 30.8122 34.6324 34.5465 33.9137 39.2965C33.4293 42.5622 30.9293 45.2653 26.5231 47.359C25.9762 47.6559 25.3199 47.6715 24.7418 47.4528Z" fill="#00C853"/>
<path d="M53.821 79.8437C53.2741 80.0468 52.6804 80.0625 52.1179 79.875C50.9929 79.4843 50.5554 78.3125 51.1335 77.2812C52.1335 75.4843 53.1179 73.0156 52.1491 71.5468C51.2429 70.1874 48.7898 69.8906 47.8679 69.8906C46.9304 69.9374 41.5085 70.0624 39.7741 66.9062C38.6179 64.7968 39.4773 62.0156 42.321 58.6562C44.196 56.4374 44.5866 55.1093 44.321 54.6249C43.9148 53.8906 41.6804 53.6093 40.2898 53.7031C39.0398 53.7968 38.0398 52.9687 38.071 51.8749C38.1023 50.7812 39.1491 49.8124 40.3991 49.7187C41.0398 49.6718 46.6491 49.3749 48.446 52.5624C49.6179 54.6562 48.7429 57.4374 45.8679 60.8281C44.0085 63.0312 43.6335 64.3593 43.9148 64.8593C44.3366 65.6406 46.6648 65.9531 48.1179 65.8749H48.2273C48.4616 65.8749 53.821 65.8124 56.1179 69.2187C57.696 71.5624 57.3835 74.75 55.196 78.7031C54.8679 79.25 54.3835 79.6406 53.821 79.8437Z" fill="#FCB424"/>
<path d="M41.2576 46.5467C40.0232 46.4998 39.0701 45.4529 39.117 44.2186C39.1326 43.6873 39.3514 43.1717 39.7107 42.7811C39.8357 42.6404 42.8826 39.4061 48.5389 36.5623C51.8514 34.9061 55.367 33.7186 59.0076 33.0311C63.6795 32.1717 68.4608 32.0936 73.1483 32.7967C74.367 32.9686 75.2108 34.1092 75.0389 35.3279C74.867 36.5467 73.7264 37.3904 72.5076 37.2186C64.6951 36.0779 57.367 37.1717 50.7264 40.4686C45.7264 42.9373 43.0232 45.7967 42.992 45.8123C42.5545 46.3279 41.9139 46.5779 41.2576 46.5467ZM9.53884 50.6248C9.32009 50.6248 9.10134 50.5935 8.89822 50.531C7.71071 50.1717 7.03884 48.9373 7.39821 47.7498C8.19509 44.9686 8.78884 42.1248 9.21072 39.2498C10.0232 33.3748 9.25759 30.4373 8.28884 29.6404C7.50759 28.9998 5.67946 29.3748 3.30446 30.6561C2.21071 31.2498 0.851335 30.8436 0.273209 29.7498C-0.320541 28.6561 0.085709 27.2967 1.17946 26.7186C5.41384 24.4217 8.75759 24.2342 11.117 26.1561C13.7888 28.3279 14.617 32.8279 13.6326 39.9061C13.1951 42.9842 12.5388 46.0311 11.6795 49.0154C11.3982 49.9686 10.5232 50.6248 9.53884 50.6248Z" fill="#9266CC"/>
<path d="M46.7109 31.5156C48.2729 31.5156 49.5391 30.2494 49.5391 28.6875C49.5391 27.1256 48.2729 25.8594 46.7109 25.8594C45.149 25.8594 43.8828 27.1256 43.8828 28.6875C43.8828 30.2494 45.149 31.5156 46.7109 31.5156Z" fill="#FCB424"/>
<path d="M43.8828 5.65625C45.4447 5.65625 46.7109 4.39006 46.7109 2.82813C46.7109 1.2662 45.4447 0 43.8828 0C42.3209 0 41.0547 1.2662 41.0547 2.82813C41.0547 4.39006 42.3209 5.65625 43.8828 5.65625Z" fill="#ED3F03"/>
<path d="M31.7109 74.25C33.4713 74.25 34.8984 72.8229 34.8984 71.0625C34.8984 69.3021 33.4713 67.875 31.7109 67.875C29.9505 67.875 28.5234 69.3021 28.5234 71.0625C28.5234 72.8229 29.9505 74.25 31.7109 74.25Z" fill="#9266CC"/>
<path d="M58.4297 47.6094C59.6551 47.6094 60.6484 46.616 60.6484 45.3906C60.6484 44.1652 59.6551 43.1719 58.4297 43.1719C57.2043 43.1719 56.2109 44.1652 56.2109 45.3906C56.2109 46.616 57.2043 47.6094 58.4297 47.6094Z" fill="#07B7EE"/>
<path d="M72.6484 8.07812C73.986 8.07812 75.0703 6.99381 75.0703 5.65625C75.0703 4.31869 73.986 3.23438 72.6484 3.23438C71.3109 3.23438 70.2266 4.31869 70.2266 5.65625C70.2266 6.99381 71.3109 8.07812 72.6484 8.07812Z" fill="#9266CC"/>
</svg>
